<svg width="1920" height="1080" viewBox="0 0 1920 1080" fill="none" xmlns="http://www.w3.org/2000/svg">
<g opacity="0.3">
<line x1="94.1504" y1="-1" x2="94.1503" y2="1160.74" stroke="#E7BB4A" stroke-width="3"/>
<line x1="190.799" y1="-1" x2="190.799" y2="1160.74" stroke="#E7BB4A" stroke-width="3"/>
<line x1="287.451" y1="-1" x2="287.451" y2="1160.74" stroke="#E7BB4A" stroke-width="3"/>
<line x1="384.1" y1="-1" x2="384.1" y2="1160.74" stroke="#E7BB4A" stroke-width="3"/>
<line x1="480.75" y1="-1" x2="480.75" y2="1160.74" stroke="#E7BB4A" stroke-width="3"/>
<line x1="577.4" y1="-1" x2="577.4" y2="1160.74" stroke="#E7BB4A" stroke-width="3"/>
<line x1="674.049" y1="-1" x2="674.049" y2="1160.74" stroke="#E7BB4A" stroke-width="3"/>
<line x1="770.701" y1="-1" x2="770.701" y2="1160.74" stroke="#E7BB4A" stroke-width="3"/>
<line x1="867.35" y1="-1" x2="867.35" y2="1160.74" stroke="#E7BB4A" stroke-width="3"/>
<line x1="964" y1="-1" x2="964" y2="1160.74" stroke="#E7BB4A" stroke-width="3"/>
<line x1="1060.65" y1="-1" x2="1060.65" y2="1160.74" stroke="#E7BB4A" stroke-width="3"/>
<line x1="1157.3" y1="-1" x2="1157.3" y2="1160.74" stroke="#E7BB4A" stroke-width="3"/>
<line x1="1253.95" y1="-1" x2="1253.95" y2="1160.74" stroke="#E7BB4A" stroke-width="3"/>
<line x1="1350.6" y1="-1" x2="1350.6" y2="1160.74" stroke="#E7BB4A" stroke-width="3"/>
<line x1="1447.25" y1="-1" x2="1447.25" y2="1160.74" stroke="#E7BB4A" stroke-width="3"/>
<line x1="1543.9" y1="-1" x2="1543.9" y2="1160.74" stroke="#E7BB4A" stroke-width="3"/>
<line x1="1640.55" y1="-1" x2="1640.55" y2="1160.74" stroke="#E7BB4A" stroke-width="3"/>
<line x1="1737.2" y1="-1" x2="1737.2" y2="1160.74" stroke="#E7BB4A" stroke-width="3"/>
<line x1="1833.85" y1="-1" x2="1833.85" y2="1160.74" stroke="#E7BB4A" stroke-width="3"/>
<line x1="-4" y1="1064.58" x2="1929" y2="1064.58" stroke="#E7BB4A" stroke-width="3"/>
<line x1="-4" y1="967.765" x2="1929" y2="967.765" stroke="#E7BB4A" stroke-width="3"/>
<line x1="-4" y1="870.953" x2="1929" y2="870.953" stroke="#E7BB4A" stroke-width="3"/>
<line x1="-4" y1="774.142" x2="1929" y2="774.142" stroke="#E7BB4A" stroke-width="3"/>
<line x1="-4" y1="677.331" x2="1929" y2="677.331" stroke="#E7BB4A" stroke-width="3"/>
<line x1="-4" y1="580.52" x2="1929" y2="580.52" stroke="#E7BB4A" stroke-width="3"/>
<line x1="-4" y1="483.708" x2="1929" y2="483.708" stroke="#E7BB4A" stroke-width="3"/>
<line x1="-4" y1="386.897" x2="1929" y2="386.897" stroke="#E7BB4A" stroke-width="3"/>
<line x1="-4" y1="290.085" x2="1929" y2="290.086" stroke="#E7BB4A" stroke-width="3"/>
<line x1="-4" y1="193.274" x2="1929" y2="193.274" stroke="#E7BB4A" stroke-width="3"/>
<line x1="-4" y1="96.4626" x2="1929" y2="96.4627" stroke="#E7BB4A" stroke-width="3"/>
<line x1="-4" y1="-0.348633" x2="1929" y2="-0.348546" stroke="#E7BB4A" stroke-width="3"/>
</g>
</svg>
